<svg width="32" height="34" viewBox="0 0 32 34" fill="none" xmlns="http://www.w3.org/2000/svg">
<path d="M1.00581 28.6208L25.4829 25.6569L25.4771 1M1.00581 28.6208L1 4.00454L25.4771 1M1.00581 28.6208L6.11003 33L30.5871 30.0071V5.34439L25.4771 1" stroke="white" stroke-width="1.18352"/>
<path fill-rule="evenodd" clip-rule="evenodd" d="M8.69287 10.2246C8.69287 9.73439 9.08688 9.2851 9.57292 9.22111L17.2 8.21699C17.686 8.153 18.0801 8.49854 18.0801 8.98877V11.3558C18.0801 11.846 17.686 12.2953 17.2 12.3593L9.57292 13.3634C9.08688 13.4274 8.69287 13.0819 8.69287 12.5917V10.2246ZM9.89715 11.2496C9.89715 10.9228 10.1598 10.6233 10.4839 10.5806C10.8079 10.5379 11.0706 10.7683 11.0706 11.0951C11.0706 11.4219 10.8079 11.7215 10.4839 11.7641C10.1598 11.8068 9.89715 11.5764 9.89715 11.2496ZM12.244 10.3489C11.9199 10.3915 11.6573 10.6911 11.6573 11.0179C11.6573 11.3447 11.9199 11.5751 12.244 11.5324C12.568 11.4897 12.8307 11.1902 12.8307 10.8634C12.8307 10.5366 12.568 10.3062 12.244 10.3489Z" fill="white"/>
<path fill-rule="evenodd" clip-rule="evenodd" d="M8.69287 14.9587C8.69287 14.4685 9.08688 14.0192 9.57292 13.9552L17.2 12.9511C17.686 12.8871 18.0801 13.2326 18.0801 13.7229V16.0899C18.0801 16.5801 17.686 17.0294 17.2 17.0934L13.8574 17.5335V18.5691L17.5242 18.0863C17.7673 18.0543 17.9643 18.2271 17.9643 18.4722C17.9643 18.7173 17.7673 18.942 17.5242 18.974L9.31046 20.0553C9.06744 20.0873 8.87043 19.9145 8.87043 19.6694C8.87043 19.4243 9.06744 19.1997 9.31046 19.1677L12.9773 18.6849V17.6493L9.57292 18.0975C9.08688 18.1615 8.69287 17.816 8.69287 17.3258V14.9587ZM9.89715 15.9837C9.89715 15.6569 10.1598 15.3573 10.4839 15.3147C10.8079 15.272 11.0706 15.5024 11.0706 15.8292C11.0706 16.156 10.8079 16.4556 10.4839 16.4982C10.1598 16.5409 9.89715 16.3105 9.89715 15.9837ZM11.6573 15.752C11.6573 15.4251 11.9199 15.1256 12.244 15.083C12.568 15.0403 12.8307 15.2707 12.8307 15.5975C12.8307 15.9243 12.568 16.2238 12.244 16.2665C11.9199 16.3091 11.6573 16.0788 11.6573 15.752Z" fill="white"/>
</svg>
