<svg width="90" height="86" viewBox="0 0 90 86" fill="none" xmlns="http://www.w3.org/2000/svg">
<path d="M57.5854 85.9873H57.0604L57.0506 77.6939C57.0506 77.669 57.0619 77.6521 57.0844 77.6432C64.5019 74.5977 71.1281 69.7174 75.8981 63.2671C79.4074 58.5203 81.7436 52.8419 81.6634 46.8778C81.6633 46.8712 81.6619 46.8647 81.6592 46.8586C81.6565 46.8525 81.6526 46.847 81.6477 46.8425C81.6428 46.8379 81.637 46.8343 81.6307 46.8319C81.6244 46.8295 81.6177 46.8284 81.6109 46.8286C71.4049 47.2463 61.9421 52.0207 55.8236 60.1747C50.3081 67.5246 48.3161 76.7683 50.3861 85.733C50.3996 85.7907 50.3766 85.8195 50.3171 85.8195H41.2991C41.2651 85.8195 41.2506 85.8028 41.2556 85.7695C41.2721 85.6581 41.3044 85.4946 41.3524 85.2788C42.2666 81.16 42.4489 76.728 41.6531 72.5264C40.8334 68.1996 38.7626 64.1144 35.8579 60.7982C30.6229 54.8207 23.0209 51.06 15.6094 48.5233C13.3239 47.7406 11.0674 47.0633 8.83989 46.4915C8.81689 46.4855 8.80589 46.4942 8.80689 46.5176C8.88589 48.9795 9.24089 51.327 9.87189 53.5602C13.2086 65.3712 22.9114 74.2904 34.3609 78.2846C34.3854 78.2936 34.3981 78.311 34.3991 78.3368L34.6781 85.7807C34.6786 85.7916 34.6763 85.8025 34.6716 85.8124C34.6669 85.8222 34.6599 85.8308 34.6511 85.8374C34.6423 85.844 34.6321 85.8484 34.6213 85.8502C34.6105 85.852 34.5993 85.8512 34.5889 85.8479C24.3626 82.5026 15.0394 76.9309 8.54364 68.2123C3.59439 61.5695 0.820893 53.6117 0.514893 45.3324V42.3116C0.589393 40.4707 0.758893 38.7318 1.02339 37.0949C3.07164 24.4209 10.6511 13.0783 21.7151 6.33776C25.7809 3.85994 30.3019 1.9393 34.9789 0.816752C35.0154 0.808298 35.0336 0.822719 35.0336 0.860013L35.0344 8.41578C35.0344 8.44015 35.0226 8.45581 34.9991 8.46277C21.4841 12.636 9.34464 23.6817 9.63039 38.794C9.63089 38.8238 9.64589 38.8365 9.67539 38.832C11.7254 38.5392 13.9461 38.0817 16.3376 37.4596C22.6211 35.8261 28.7846 32.7688 33.3206 28.0705C40.5199 20.6132 42.3829 10.3827 41.3314 0.432623C41.3306 0.424841 41.3313 0.416972 41.3337 0.4095C41.336 0.402029 41.3399 0.395113 41.345 0.389175C41.3501 0.383238 41.3564 0.378406 41.3635 0.374975C41.3706 0.371544 41.3783 0.369587 41.3861 0.369224L49.5304 0.0126928C49.5549 0.0116983 49.5686 0.0233837 49.5716 0.0477492C50.0711 4.20081 49.9701 8.25964 49.2686 12.2242C48.0739 18.9722 45.0799 25.2637 40.5416 30.461C36.4354 35.1645 31.2881 38.9014 25.6714 41.6C24.8814 41.9794 23.9591 42.3978 22.9046 42.8553C22.8781 42.8667 22.8779 42.8787 22.9039 42.8911C29.2709 45.992 34.8819 50.1087 39.7369 55.2414C41.8204 57.4447 43.6961 59.9039 44.8616 62.6286C44.8726 62.6545 44.8869 62.6567 44.9044 62.6353C50.0404 56.4259 55.7291 50.6818 62.3404 46.0529C68.2159 41.9394 74.9749 38.8552 82.2094 38.242C84.6094 38.0392 87.0779 38.1294 89.6149 38.5128C89.7719 38.5362 89.8851 38.5513 89.9546 38.5583C89.9866 38.5613 90.0016 38.5787 89.9996 38.6105C89.6089 46.6809 88.4644 54.9251 85.1479 62.3884C83.5354 66.0179 81.4146 69.3154 78.7856 72.281C73.2446 78.5323 65.7071 82.786 58.0166 85.8516C57.8761 85.9078 57.7324 85.953 57.5854 85.9873Z" fill="#DA251E"/>
<path d="M70.3218 28.5941C75.0981 28.5941 78.9701 24.7434 78.9701 19.9934C78.9701 15.2433 75.0981 11.3926 70.3218 11.3926C65.5455 11.3926 61.6736 15.2433 61.6736 19.9934C61.6736 24.7434 65.5455 28.5941 70.3218 28.5941Z" fill="#DA251E"/>
</svg>
